#!OML:ASF H:\ManfredObstacles\Project 1\Capture day 2\Session 1\male.ASF
:FULLY-SPECIFIED
:DEGREES
216
root 2.32663 9.18333 14.8848 -144.509 -2.97654 174.441
lowerback 36.7124 3.5365 -4.01731
upperback 12.5308 -0.926492 -2.91423
thorax -4.38073 -1.8114 -0.549749
lowerneck -34.3631 -2.97688 -1.097
upperneck 20.5532 -5.67389 6.83771
head 12.7024 -1.59332 1.70504
rclavicle -1.32192e-014 3.73467e-014
rhumerus 35.3377 2.89941 -73.2199
rradius 34.9953
rwrist 31.6759
rhand -22.7258 -15.5978
rfingers 7.12502
rthumb 3.70788 -45.5453
lclavicle -1.32192e-014 3.73467e-014
lhumerus 45.5056 -16.1524 54.6572
lradius 33.462
lwrist -33.7519
lhand -13.0705 16.4958
lfingers 7.12502
lthumb 13.0252 46.0691
rfemur -81.2895 2.2198 28.6389
rtibia 134.369
rfoot -31.443 -30.1372
rtoes -38.1495
lfemur -83.5589 17.61 -20.3527
ltibia 137.765
lfoot -7.7897 14.006
ltoes -3.42502
217
root 2.33067 9.28092 14.7217 -143.886 -2.95681 174.382
lowerback 36.5067 3.55238 -4.21008
upperback 12.5458 -0.93126 -2.85382
thorax -4.2905 -1.81246 -0.387563
lowerneck -34.3814 -2.92717 -1.00882
upperneck 20.3901 -5.60217 6.73169
head 12.6288 -1.57404 1.66235
rclavicle -2.5345e-014 -2.20651e-014
rhumerus 35.317 3.28796 -73.1433
rradius 34.267
rwrist 31.9471
rhand -23.6276 -15.7299
rfingers 7.12502
rthumb 2.83702 -45.6908
lclavicle -2.5345e-014 -2.20651e-014
lhumerus 45.2309 -16.4367 54.5532
lradius 33.2811
lwrist -33.4556
lhand -13.6171 16.6888
lfingers 7.12502
lthumb 12.4983 46.2951
rfemur -80.6451 1.91537 28.4031
rtibia 133.291
rfoot -30.6788 -30.0414
rtoes -38.1623
lfemur -83.7973 16.8902 -20.256
ltibia 137.537
lfoot -7.90401 14.1012
ltoes -4.58678
218
root 2.334 9.37833 14.5593 -143.315 -2.97424 174.334
lowerback 36.2773 3.57429 -4.41526
upperback 12.6265 -0.942921 -2.74051
thorax -4.1188 -1.82767 -0.162964
lowerneck -34.4386 -2.87283 -0.942421
upperneck 20.2222 -5.49886 6.58051
head 12.5572 -1.54821 1.61216
rclavicle -1.64991e-014 2.55314e-014
rhumerus 35.4301 3.72324 -72.9802
rradius 33.4881
rwrist 32.223
rhand -24.5053 -15.8755
rfingers 7.12502
rthumb 1.98939 -45.846
lclavicle -1.64991e-014 2.55314e-014
lhumerus 45.0049 -16.6275 54.4962
lradius 33.0699
lwrist -33.14
lhand -14.1807 16.8697
lfingers 7.12502
lthumb 11.9549 46.5083
rfemur -79.9805 1.62038 28.18
rtibia 132.212
rfoot -29.786 -29.8271
rtoes -37.802
lfemur -84.1308 16.3027 -20.2154
ltibia 137.482
lfoot -8.12872 15.2142
ltoes -5.5346
219
root 2.33635 9.47523 14.3984 -142.792 -3.02653 174.292
lowerback 36.0139 3.60124 -4.58643
upperback 12.7853 -0.95084 -2.61085
thorax -3.85026 -1.85076 0.0573804
lowerneck -34.5273 -2.83746 -0.895079
upperneck 20.0199 -5.41369 6.43847
head 12.4791 -1.53096 1.56471
rclavicle 1.20265e-014 -1.74806e-014
rhumerus 35.6715 4.09387 -72.8191
rradius 32.6868
rwrist 32.5023
rhand -25.2949 -16.0449
rfingers 7.12502
rthumb 1.22676 -46.0212
lclavicle 1.20265e-014 -1.74806e-014
lhumerus 44.8876 -16.7752 54.4402
lradius 32.8112
lwrist -32.8173
lhand -14.8053 17.0246
lfingers 7.12502
lthumb 11.3525 46.6973
rfemur -79.318 1.33396 27.9618
rtibia 131.147
rfoot -28.7756 -29.4713
rtoes -37.1547
lfemur -84.5863 15.7953 -20.232
ltibia 137.579
lfoot -8.25556 17.3418
ltoes -5.98428
220
root 2.33721 9.57183 14.2389 -142.324 -3.11761 174.27
lowerback 35.6412 3.62207 -4.69964
upperback 13.1061 -0.953208 -2.4729
thorax -3.50652 -1.88097 0.276581
lowerneck -34.6488 -2.8058 -0.853456
upperneck 19.8152 -5.32826 6.28372
head 12.4056 -1.51535 1.51344
rclavicle -6.36111e-015 -2.90971e-014
rhumerus 36.0221 4.39874 -72.684
rradius 31.8841
rwrist 32.7014
rhand -25.9811 -16.2085
rfingers 7.12502
rthumb 0.563957 -46.1875
lclavicle -6.36111e-015 -2.90971e-014
lhumerus 44.836 -16.8467 54.4656
lradius 32.4817
lwrist -32.6526
lhand -15.5161 17.1578
lfingers 7.12502
lthumb 10.6669 46.8671
rfemur -78.6484 1.071 27.753
rtibia 130.103
rfoot -27.6341 -28.9432
rtoes -36.1681
lfemur -85.1591 15.3359 -20.2791
ltibia 137.787
lfoot -8.24393 20.2017
ltoes -5.95832
221
root 2.33621 9.66829 14.0814 -141.919 -3.25706 174.271
lowerback 35.3809 3.62928 -4.7657
upperback 13.3742 -0.977897 -2.29817
thorax -3.12279 -1.92644 0.491457
lowerneck -34.7796 -2.78343 -0.872272
upperneck 19.6175 -5.23652 6.15894
head 12.3392 -1.49725 1.48493
rclavicle -7.25564e-015 1.67973e-014
rhumerus 36.4588 4.66136 -72.6125
rradius 31.0685
rwrist 32.8966
rhand -26.5994 -16.3753
rfingers 7.12502
rthumb -0.0331445 -46.355
lclavicle -7.25564e-015 1.67973e-014
lhumerus 44.8069 -16.8094 54.5863
lradius 32.0791
lwrist -32.6833
lhand -16.2913 17.2617
lfingers 7.12502
lthumb 9.91911 47.008
rfemur -77.9747 0.834935 27.5587
rtibia 129.088
rfoot -26.42 -28.1112
rtoes -34.8788
lfemur -85.855 14.8475 -20.3257
ltibia 138.044
lfoot -8.17327 23.2975
ltoes -5.51351
222
root 2.33336 9.76453 13.9264 -141.584 -3.43021 174.303
lowerback 35.1714 3.63135 -4.76912
upperback 13.6701 -1.00507 -2.10979
thorax -2.72698 -1.9769 0.687637
lowerneck -34.8789 -2.76992 -0.925814
upperneck 19.3872 -5.14344 6.05056
head 12.2563 -1.48055 1.46839
rclavicle -1.38155e-014 -1.594e-014
rhumerus 36.9376 4.8341 -72.6373
rradius 30.2506
rwrist 33.0253
rhand -27.1582 -16.503
rfingers 7.12502
rthumb -0.572845 -46.4819
lclavicle -1.38155e-014 -1.594e-014
lhumerus 44.7937 -16.6779 54.8449
lradius 31.6199
lwrist -32.9675
lhand -17.0823 17.3368
lfingers 7.12502
lthumb 9.15591 47.1181
rfemur -77.3129 0.643653 27.3746
rtibia 128.113
rfoot -25.1192 -27.0179
rtoes -33.5609
lfemur -86.6598 14.3101 -20.3557
ltibia 138.283
lfoot -8.13028 26.294
ltoes -4.92003
223
root 2.32895 9.86016 13.7745 -141.33 -3.63795 174.383
lowerback 35.0378 3.62954 -4.72177
upperback 13.9755 -1.0368 -1.89486
thorax -2.34715 -2.03238 0.886124
lowerneck -34.9853 -2.76538 -1.02047
upperneck 19.1813 -5.04404 5.94016
head 12.185 -1.46352 1.45918
rclavicle 1.21259e-014 2.62396e-014
rhumerus 37.4404 4.96912 -72.7261
rradius 29.441
rwrist 33.0244
rhand -27.643 -16.5775
rfingers 7.12502
rthumb -1.04109 -46.5547
lclavicle 1.21259e-014 2.62396e-014
lhumerus 44.7829 -16.4427 55.2459
lradius 31.1133
lwrist -33.4149
lhand -17.8344 17.3874
lfingers 7.12502
lthumb 8.43013 47.1992
rfemur -76.657 0.513429 27.2225
rtibia 127.189
rfoot -23.727 -25.7112
rtoes -32.3503
lfemur -87.5772 13.7133 -20.3465
ltibia 138.448
lfoot -8.48611 28.4786
ltoes -4.52943
224
root 2.32354 9.95431 13.626 -141.152 -3.8637 174.512
lowerback 34.9949 3.64549 -4.59574
upperback 14.2938 -1.04178 -1.68399
thorax -1.98676 -2.07518 1.03059
lowerneck -35.1338 -2.79455 -1.12764
upperneck 18.9925 -4.99547 5.85813
head 12.1312 -1.46461 1.45286
rclavicle -1.72943e-014 8.59744e-015
rhumerus 37.9319 4.95636 -72.9141
rradius 28.6527
rwrist 32.9622
rhand -28.041 -16.5833
rfingers 7.12502
rthumb -1.42549 -46.5583
lclavicle -1.72943e-014 8.59744e-015
lhumerus 44.8546 -16.1973 55.7028
lradius 30.5954
lwrist -33.9768
lhand -18.5074 17.4321
lfingers 7.12502
lthumb 7.78065 47.2689
rfemur -76.0322 0.459385 27.1029
rtibia 126.337
rfoot -22.2717 -24.2803
rtoes -31.5549
lfemur -88.6132 13.0512 -20.3076
ltibia 138.487
lfoot -8.88426 30.0207
ltoes -4.42684
225
root 2.3176 10.0461 13.481 -141.043 -4.08432 174.693
lowerback 35.0417 3.68628 -4.41099
upperback 14.6122 -1.01563 -1.49122
thorax -1.65918 -2.10143 1.11622
lowerneck -35.2948 -2.83993 -1.21873
upperneck 18.8178 -4.98759 5.80489
head 12.0876 -1.47786 1.44702
rclavicle -4.9398e-014 -5.28767e-014
rhumerus 38.3812 4.81164 -73.2014
rradius 27.9023
rwrist 32.9047
rhand -28.3494 -16.5345
rfingers 7.12502
rthumb -1.7234 -46.5073
lclavicle -4.9398e-014 -5.28767e-014
lhumerus 45.0163 -15.9876 56.1453
lradius 30.0801
lwrist -34.483
lhand -19.0928 17.4858
lfingers 7.12502
lthumb 7.21553 47.3428
rfemur -75.4643 0.496184 27.016
rtibia 125.579
rfoot -20.7461 -22.8373
rtoes -31.3815
lfemur -89.7709 12.3502 -20.2759
ltibia 138.373
lfoot -9.25204 30.9268
ltoes -4.50433
